<svg
	width="20px" height="20px" viewBox="0 0 20 20"
	xmlns="http://www.w3.org/2000/svg">
	<path id="blender" fill="white"
		d="M 17.08,7.03
		C 17.08,7.03 11.19,2.51 11.19,2.51
			10.77,2.18 10.03,2.26 9.66,2.61
			9.30,2.94 9.32,3.36 9.74,3.69
			9.74,3.69 12.12,5.62 12.12,5.62
			12.12,5.62 4.65,5.62 4.65,5.62
			4.09,5.62 3.47,5.98 3.33,6.51
			3.18,7.11 3.66,7.50 4.30,7.50
			4.30,7.50 8.03,7.50 8.03,7.50
			8.03,7.50 1.29,12.66 1.29,12.66
			0.64,13.16 0.41,13.97 0.82,14.47
			1.23,14.95 2.07,14.98 2.72,14.50
			2.72,14.50 6.43,11.47 6.43,11.47
			6.37,11.81 6.36,12.20 6.41,12.49
			6.88,15.34 9.55,17.50 12.86,17.50
			16.46,17.50 19.38,14.83 19.38,11.58
			19.38,9.73 18.48,8.10 17.08,7.03
			17.08,7.03 17.08,7.03 17.08,7.03 Z
		M 12.85,14.70
		C 10.66,14.70 8.88,13.08 8.88,11.10
			8.88,9.12 10.66,7.48 12.85,7.48
			15.05,7.48 16.83,9.09 16.83,11.10
			16.83,13.07 15.05,14.70 12.85,14.70 Z
		M 12.93,8.68
		C 11.53,8.68 10.40,9.72 10.40,10.98
			10.40,12.25 11.53,13.28 12.93,13.28
			14.33,13.28 15.47,12.25 15.47,10.98
			15.47,9.72 14.33,8.68 12.93,8.68
			12.93,8.68 12.93,8.68 12.93,8.68 Z" />
</svg>
